<svg id="Layer_1" data-name="Layer 1" xmlns="http://www.w3.org/2000/svg" viewBox="0 0 1920 1280"><defs><style>.cls-1{fill:#f37350;}.cls-2{fill:#f79674;}.cls-3{fill:#fee75e;}.cls-4{fill:#1d1d1b;}.cls-5{fill:#fff;}</style></defs><title>cat</title><path class="cls-1" d="M797.77,583A1137.31,1137.31,0,0,0,692.61,418.61a139.26,139.26,0,0,1-16,49.9A583.85,583.85,0,0,0,553.29,293.6a157,157,0,0,0,.73,60.79q-66.11-63.64-132.2-127.25a405.49,405.49,0,0,0,51.91,213.11q-19.61-13.11-39.2-26.21c-11.94,8.86-3,27.61,6.56,39q25.64,30.68,51.28,61.34-21.35-6.88-42.69-13.81C527.94,578.54,634.8,627.1,745,634.81L797.77,583Z"/><path class="cls-2" d="M792.39,991.88c-12.86,8.66-26.07,16.5-41.21,18.79C722.4,1015,693.88,997.3,677,973.6c-60-84.17-32.33-227.89,15.7-311.45,62.69-109.09,186.93-179.89,312.74-178.21,131.53,1.75,255.31,79.15,331.23,186.58,29.38,41.56,55.68,78.34,71.86,126.87,18.77,56.3,31,115.2,31.27,174.71.06,11.84-.45,24.1-5.61,34.75-13.34,27.59-62,23-75.42-1.61-25.12-46-20.07-74.28-75.6-86.71-61.48-13.75-125.37-10.93-188.15-5.71-43.87,3.65-87.82,8.48-130.54,19.1-26.43,6.57-47.56,13.78-74.4,17.69A198.11,198.11,0,0,0,813,978c-6.92,4.39-13.7,9.24-20.59,13.87Z"/><path class="cls-3" d="M1082.33,743.75a225.85,225.85,0,0,0,149.45,73.73c37.49,2.85,76.25-4.18,108.47-23.57s57.23-51.74,64.16-88.68c1.15-6.16,1.32-13.65-3.71-17.37-3.82-2.82-9.07-2.24-13.77-1.57a663.28,663.28,0,0,1-262-15.54c-42.78-11.33-63.18-38.21-97.8-58.14-1,46.61,24.64,97,55.19,131.14Z"/><path class="cls-1" d="M1350.45,357.6c-7.1-12.47-1.15-28,4.85-41,4.34-9.39,20.5-54.68,31.5-25.23,9.52,25.48,19.18,51.81,17.94,79a15.37,15.37,0,0,1-10.2-2.9l-44.09-9.81Z"/><path class="cls-1" d="M1069.5,370.54c1.81.07,1.48-2.83.46-4.31a190.2,190.2,0,0,0-28.7-32.91c-6.26-5.68-14.46-11.29-22.53-8.79-13.42,29.17-9.29,65.64,10.32,91.05l40.45-45Z"/><path class="cls-2" d="M1001.42,557.54c.08.33.16.64.25,1q2.37,9.47,5.48,18.71,3.26,9.69,7.23,19.11c4.64,11,10,22.49,16.06,34,24,45.58,59,91.68,103.82,111.88,63.38,28.53,126.75,57.76,197,34.17,53.82-18.06,96.8-60,128.41-107.14,15.77-23.52,29.33-49,35.37-76.71a142.39,142.39,0,0,0,2.61-16.83c1.88-19.51,0-39.21-3.51-58.69-1.15-6.44-2.49-12.88-3.93-19.29-2.91-12.84-6.24-25.54-9.37-38a142.44,142.44,0,0,0-5.17-16.3,170.5,170.5,0,0,0-9-19.62q-2.12-3.94-4.45-7.85A214.62,214.62,0,0,0,1443.19,389c-20.62-24.9-46.7-45.8-72.92-58.76-37.33-18.48-79.06-26.65-120.64-29.51-44-3-74.11,7.7-113.78,23.41-31.16,12.34-58.1,20.74-83.24,44.95A183.57,183.57,0,0,0,1007.54,439a203.4,203.4,0,0,0-12,63.57h0a205.53,205.53,0,0,0,5.85,54.94Z"/><path class="cls-4" d="M1301.85,473c-1.56,12.45-14.79,22.38-27,19.19-10.18-2.67-15.38-14.69-12.4-24.11,2.82-8.94-11.44-12.86-14-3.87-4.8,17,5.44,36.31,23,40.33,18.95,4.33,35.5-13.41,33.22-31.54a1.39,1.39,0,0,0-2.78,0Z"/><path class="cls-4" d="M1199.72,481.84c-.9,8-.43,12.45,5.9,18.31,5.18,4.78,13.12,6.46,19.91,4.94,18.28-4.07,30-21.67,32.31-39.54.89-7.07-9.12-7-11.37-1.53-4.29,10.34-6.18,21-15.76,28.16a19.24,19.24,0,0,1-17,3c-4.72-1.28-11.16-8.05-11.23-13.3,0-1.83-2.58-1.75-2.78,0Z"/><path class="cls-4" d="M1247,453.59q-1.44-1.47.08.33a13,13,0,0,0,1.64,1.34,11.41,11.41,0,0,1,2.85,2.27,8.53,8.53,0,0,1,2.52,5.32c.65-2.49,1.31-5,2-7.46a16.56,16.56,0,0,1-2.6,2.3c-1.55,1,.33.09-1.39.53a1.67,1.67,0,0,1,1.47.17,3.57,3.57,0,0,1,1.36,1.23c1,1.58.25-.71.38,1.29-.1-1.55-.35,1-.54,1.43a5.2,5.2,0,0,1-4.27,2.52,8.71,8.71,0,0,0,8.65-8.65c0-6.12-5.49-9.15-10.95-8.33-7.73,1.15-10.42,9.8-9,16.42,1.78,8.28,11.49,11.84,18.82,8.78a20.56,20.56,0,0,0,9.64-7.65c2.91-4.67.71-9.12-2.32-13a19.62,19.62,0,0,0-8.24-6,16.62,16.62,0,0,0-4.82-1c-2.13-.18-3.37.74-5.25,1.37-3.56,1.17-3.19,5.53,0,6.83Z"/><path class="cls-1" d="M1001.42,557.54c.08.33.16.64.25,1A247.08,247.08,0,0,0,1032,546c14.3-7,41.68-13.9,37.89-35-2.57-14.31-18.84-18.46-30.67-19.09-15.12-.79-29.84,4.43-43.69,10.71h0a205.53,205.53,0,0,0,5.85,54.94Z"/><path class="cls-1" d="M1007.15,577.22q3.26,9.69,7.23,19.11c4.64,11,10,22.49,16.06,34q22.13-14.88,43-31.54c10.16-8.12,21.06-18.81,19.56-31.72-.56-4.89-3.3-9.78-7.82-11.71a18.4,18.4,0,0,0-7.7-1.1c-24.8.44-46.78,15-70.32,23Z"/><path class="cls-1" d="M997.4,480.22c29.67,1.48,78.55-1.68,62.45-28.17-7.66-12.6-33.82-15.93-52.31-13a197.72,197.72,0,0,0-10.14,41.2Z"/><path class="cls-1" d="M1412,479.42c4.51,21,32.43,17,48.34,18a250.86,250.86,0,0,0,29.91.26c-2.91-12.84-6.24-25.54-9.37-38a142.44,142.44,0,0,0-5.17-16.3c-14.59-.43-29.44.52-42.56,6.71-10.71,5.06-24.19,15.07-21.15,29.29Z"/><path class="cls-1" d="M1411.92,540.05c3.52,12.52,17.66,18.3,30.14,22q27.51,8,55.64,13.68c1.88-19.51,0-39.21-3.51-58.69-24.5,1.31-50-3.54-72.75,5.32a18.33,18.33,0,0,0-6.72,3.95c-3.45,3.49-4.11,9-2.8,13.78Z"/><path class="cls-1" d="M1466.75,423.8q-2.12-3.94-4.45-7.85A214.62,214.62,0,0,0,1443.19,389c-18.33,4.11-41.84,17.27-44.18,32-4.81,30.35,40.74,15.32,67.74,2.75Z"/><path class="cls-2" d="M670.56,944.68c11.18,6.18,10.7,22.58,6,34.47s-12.1,23.88-9.71,36.43a34.66,34.66,0,0,0,6.78,14.1c12.93,17.17,35.92,26.16,57.08,22.29,18.7-3.42,34.76-15.89,46.37-30.94s19.34-32.66,27-50.06L670.56,944.68Z"/><path class="cls-5" d="M1124.6,418a29.5,29.5,0,1,0,27-31.77,29.5,29.5,0,0,0-27,31.77"/><path d="M1133.9,417.28a20.17,20.17,0,1,0,18.48-21.72,20.16,20.16,0,0,0-18.48,21.72"/><path class="cls-5" d="M1175.47,418.94a3.15,3.15,0,1,1-3.39-2.88,3.15,3.15,0,0,1,3.39,2.88Z"/><path class="cls-5" d="M1142.29,409.39a6.86,6.86,0,1,1-7.39-6.29,6.86,6.86,0,0,1,7.39,6.29Z"/><path class="cls-5" d="M1310.53,400.21a29.5,29.5,0,1,0,27-31.78,29.49,29.49,0,0,0-27,31.78"/><path d="M1319.83,399.46a20.17,20.17,0,1,0,18.48-21.73,20.17,20.17,0,0,0-18.48,21.73"/><path class="cls-5" d="M1361.4,401.12a3.14,3.14,0,1,1-3.39-2.89,3.15,3.15,0,0,1,3.39,2.89Z"/><path class="cls-5" d="M1328.22,391.57a6.86,6.86,0,1,1-7.39-6.29,6.87,6.87,0,0,1,7.39,6.29Z"/></svg>